# xmcd
#
# Track frame offsets:
#	150
#	11693
#	23303
#	35750
#	47505
#	59905
#	74643
#	87290
#	95475
#	108288
#	120950
#	133228
#	146583
#	154863
#	165720
#	181460
#	199120
#	210118
#	222148
#	232998
#
# Disc length: 3266 seconds
#
# Revision: 0
# Processed by: cddbd v1.4PL0 Copyright (c) Steve Scherf et al.
# Submitted via: dBpowerAMP V4.0
#
DISCID=150cc014
DTITLE=Chuck Wagon Gang - The Best Of Country Gospel
DYEAR=1992
DGENRE=Gospel
TTITLE0=Life's Railway To Heaven
TTITLE1=I'll Have a New Life
TTITLE2=If I could Hear My Mother Pray Again
TTITLE3=Daddy Sang Bass
TTITLE4=When The Wagon Was New
TTITLE5=I Love To Tell The Story
TTITLE6=Blessed Assurance
TTITLE7=We'll Understand It Better
TTITLE8=Peace In The Valley
TTITLE9=Wings Of A Dove
TTITLE10=Someone To Talk To
TTITLE11=The Unclouded Day
TTITLE12=Dust On The Bible
TTITLE13=Wait A Little Longer Please Jesus
TTITLE14=Nearer My God To Thee
TTITLE15=If We Never Meet Again
TTITLE16=Will The Circle Be Unbroken
TTITLE17=Cabin On The Hill
TTITLE18=Family Bible
TTITLE19=Precious Memories
EXTD=
EXTT0=
EXTT1=
EXTT2=
EXTT3=
EXTT4=
EXTT5=
EXTT6=
EXTT7=
EXTT8=
EXTT9=
EXTT10=
EXTT11=
EXTT12=
EXTT13=
EXTT14=
EXTT15=
EXTT16=
EXTT17=
EXTT18=
EXTT19=
PLAYORDER=
